<?xml version="1.0"?>
<svg xmlns="http://www.w3.org/2000/svg" height="512px" version="1.1" viewBox="0 -29 512.00102 512" width="512px">
<g id="surface1">
<path d="M 337.792969 316.414062 C 354.335938 316.414062 367.792969 302.957031 367.792969 286.414062 C 367.792969 269.871094 354.335938 256.414062 337.792969 256.414062 L 317.792969 256.414062 C 301.253906 256.414062 287.792969 269.871094 287.792969 286.414062 C 287.792969 302.957031 301.253906 316.414062 317.792969 316.414062 Z M 307.792969 286.414062 C 307.792969 280.898438 312.28125 276.414062 317.792969 276.414062 L 337.792969 276.414062 C 343.308594 276.414062 347.792969 280.898438 347.792969 286.414062 C 347.792969 291.929688 343.308594 296.414062 337.792969 296.414062 L 317.792969 296.414062 C 312.28125 296.414062 307.792969 291.929688 307.792969 286.414062 Z M 307.792969 286.414062 " style=" fill-rule:nonzero;fill-opacity:1;" stroke="#4ecca3" fill="#4ecca3"/>
<path d="M 222.089844 256.414062 L 126.089844 256.414062 C 102.929688 256.414062 84.089844 275.253906 84.089844 298.414062 L 84.089844 352.578125 C 84.089844 375.734375 102.929688 394.578125 126.089844 394.578125 L 222.089844 394.578125 C 245.246094 394.578125 264.089844 375.734375 264.089844 352.578125 L 264.089844 298.414062 C 264.089844 275.253906 245.246094 256.414062 222.089844 256.414062 Z M 244.089844 352.578125 C 244.089844 364.707031 234.21875 374.578125 222.089844 374.578125 L 126.089844 374.578125 C 113.957031 374.578125 104.089844 364.707031 104.089844 352.578125 L 104.089844 298.414062 C 104.089844 286.28125 113.957031 276.414062 126.089844 276.414062 L 222.089844 276.414062 C 234.21875 276.414062 244.089844 286.28125 244.089844 298.414062 Z M 244.089844 352.578125 " style=" fill-rule:nonzero;fill-opacity:1;" stroke="#4ecca3" fill="#4ecca3"/>
<path d="M 507.695312 238.402344 C 505 236.535156 501.5625 236.105469 498.488281 237.257812 L 413.40625 269.167969 L 413.40625 266.414062 C 413.40625 229.421875 384.242188 199.113281 347.699219 197.273438 C 375.503906 177.589844 393.6875 145.175781 393.6875 108.59375 C 393.6875 48.714844 344.976562 0 285.097656 0 C 228.171875 0 181.34375 44.027344 176.859375 99.816406 C 164.289062 86.914062 146.746094 78.875 127.347656 78.875 C 124.480469 78.875 121.585938 79.054688 118.742188 79.410156 C 113.261719 80.097656 109.378906 85.097656 110.066406 90.578125 C 110.75 96.058594 115.746094 99.941406 121.230469 99.257812 C 123.253906 99.003906 125.3125 98.875 127.351562 98.875 C 154.453125 98.875 176.503906 120.925781 176.503906 148.027344 C 176.503906 175.132812 154.453125 197.183594 127.351562 197.183594 C 100.246094 197.183594 78.195312 175.132812 78.195312 148.027344 C 78.195312 143.734375 78.757812 139.457031 79.867188 135.308594 C 81.300781 129.972656 78.132812 124.488281 72.796875 123.058594 C 67.460938 121.628906 61.980469 124.796875 60.550781 130.132812 C 58.988281 135.964844 58.195312 141.988281 58.195312 148.027344 C 58.195312 169.570312 68.097656 188.835938 83.582031 201.527344 C 60.28125 210.21875 42.886719 231.121094 39.207031 256.414062 L 29.238281 256.414062 C 13.117188 256.414062 0 269.527344 0 285.652344 L 0 304.890625 C 0 321.011719 13.117188 334.125 29.238281 334.125 L 38.476562 334.125 L 38.476562 384.574219 C 38.476562 422.75 69.53125 453.804688 107.703125 453.804688 L 244.179688 453.804688 C 249.703125 453.804688 254.179688 449.328125 254.179688 443.804688 C 254.179688 438.28125 249.703125 433.804688 244.179688 433.804688 L 107.703125 433.804688 C 80.558594 433.804688 58.476562 411.722656 58.476562 384.574219 L 58.476562 266.414062 C 58.476562 239.269531 80.558594 217.183594 107.703125 217.183594 L 344.179688 217.183594 C 371.324219 217.183594 393.410156 239.269531 393.410156 266.414062 L 393.410156 384.578125 C 393.410156 411.722656 371.324219 433.804688 344.179688 433.804688 L 313.144531 433.804688 C 307.621094 433.804688 303.144531 438.28125 303.144531 443.804688 C 303.144531 449.328125 307.621094 453.804688 313.144531 453.804688 L 344.179688 453.804688 C 382.351562 453.804688 413.40625 422.75 413.40625 384.578125 L 413.40625 381.824219 L 498.488281 413.734375 C 501.558594 414.882812 505 414.457031 507.695312 412.589844 C 510.394531 410.722656 512 407.648438 512 404.371094 L 512 246.621094 C 512 243.339844 510.390625 240.269531 507.695312 238.402344 Z M 29.238281 314.125 C 24.144531 314.125 20 309.984375 20 304.890625 L 20 285.652344 C 20 280.558594 24.144531 276.414062 29.238281 276.414062 L 38.476562 276.414062 L 38.476562 314.128906 L 29.238281 314.128906 Z M 285.097656 20 C 333.949219 20 373.6875 59.742188 373.6875 108.59375 C 373.6875 157.441406 333.949219 197.183594 285.097656 197.183594 C 236.246094 197.183594 196.503906 157.441406 196.503906 108.59375 C 196.503906 59.742188 236.246094 20 285.097656 20 Z M 175.933594 197.183594 C 184.214844 189 190.429688 178.742188 193.757812 167.265625 C 201.300781 178.96875 211.03125 189.136719 222.363281 197.183594 Z M 492 389.9375 L 413.40625 360.464844 L 413.40625 290.527344 L 492 261.050781 Z M 492 389.9375 " style=" fill-rule:nonzero;fill-opacity:1;" stroke="#4ecca3" fill="#4ecca3"/>
<path d="M 284.414062 433.804688 L 284.144531 433.804688 C 278.621094 433.804688 274.144531 438.28125 274.144531 443.804688 C 274.144531 449.328125 278.621094 453.804688 284.144531 453.804688 L 284.414062 453.804688 C 289.9375 453.804688 294.414062 449.328125 294.414062 443.804688 C 294.414062 438.28125 289.9375 433.804688 284.414062 433.804688 Z M 284.414062 433.804688 " style=" fill-rule:nonzero;fill-opacity:1;" stroke="#4ecca3" fill="#4ecca3"/>
<path d="M 84.390625 117.359375 C 87.042969 117.359375 89.691406 116.308594 91.660156 114.226562 L 91.8125 114.066406 C 95.636719 110.078125 95.5 103.75 91.515625 99.925781 C 87.527344 96.105469 81.199219 96.238281 77.375 100.226562 L 77.125 100.488281 C 73.332031 104.503906 73.511719 110.832031 77.523438 114.625 C 79.453125 116.453125 81.925781 117.359375 84.390625 117.359375 Z M 84.390625 117.359375 " style=" fill-rule:nonzero;fill-opacity:1;" stroke="#4ecca3" fill="#4ecca3"/>
</g>
</svg>
